<svg width="16" height="16" viewBox="0 0 16 16" fill="none" xmlns="http://www.w3.org/2000/svg">
<g clip-path="url(#clip0_158_518)">
<rect width="16" height="16" fill="white"/>
<path opacity="0.3" d="M-10.043 8.20212C-9.9146 8.08393 -9.58783 7.91846 -9.30774 8.20212C-8.95764 8.5567 -8.46749 9.38995 -8.15239 9.37223C-7.83729 9.3545 -6.85699 5.63145 -6.40185 6.11012C-5.94671 6.5888 -4.96641 11.6592 -4.68633 11.3933C-4.40624 11.1274 -3.32091 3.84084 -2.90078 4.01812C-2.48065 4.19541 -1.78044 13.9285 -1.04521 13.4853C-0.30999 13.0421 0.0401179 3.78765 0.6353 4.01812C1.23048 4.2486 1.82566 11.5883 2.45586 11.4288C3.08605 11.2692 3.50618 5.87965 4.17138 6.07467C4.83659 6.26968 5.36175 9.70907 6.06196 9.3545C6.76217 8.99992 6.65714 7.7589 7.1823 7.97165C7.70746 8.1844 8.30265 8.50351 8.4777 8.39714C8.65275 8.29077 9.66806 6.87246 9.98316 7.04975C10.2983 7.22704 11.2085 10.4537 11.5236 10.3296C11.8387 10.2055 12.9241 4.81592 13.3442 5.0464C13.7643 5.27687 14.5346 12.6166 15.1647 12.3861C15.7949 12.1556 16.3901 2.95439 16.8803 3.02531C17.3704 3.09623 18.0706 12.4925 18.5958 12.4393C19.121 12.3861 19.8212 4.94002 20.4164 5.0464C21.0115 5.15277 21.3967 10.4182 22.1669 10.3473C22.9371 10.2764 23.1472 7.08521 23.7424 7.15612C24.3376 7.22704 24.9677 8.53897 25.3879 8.41487C25.724 8.31559 25.8313 8.23167 25.843 8.20212" stroke="#05ADF2" stroke-width="0.15036" stroke-linecap="round"/>
<path d="M9.62293 12.0608C9.16147 11.2412 8.66213 10.4319 8.12491 9.63296C7.58769 8.83402 7.01603 8.07984 6.40993 7.37043V12.0608H4.81893V4.90128H6.13099C6.35827 5.12856 6.60967 5.40751 6.88516 5.7381C7.16066 6.0687 7.4396 6.42341 7.72199 6.80222C8.01126 7.17414 8.29709 7.56328 8.57948 7.96964C8.86186 8.36911 9.12703 8.75481 9.37498 9.12673V4.90128H10.9763V12.0608H9.62293Z" fill="black"/>
</g>
<defs>
<clipPath id="clip0_158_518">
<rect width="16" height="16" fill="white"/>
</clipPath>
</defs>
</svg>
