<svg width="2084" height="1226" viewBox="0 0 2084 1226" fill="none" xmlns="http://www.w3.org/2000/svg">
<path opacity="0.3" d="M-136.763 341.359C-128.422 333.68 -107.193 322.93 -88.9957 341.359C-66.2496 364.395 -34.4051 418.531 -13.9336 417.379C6.5379 416.227 70.227 174.344 99.7969 205.444C129.367 236.543 193.056 565.964 211.253 548.687C229.45 531.409 299.963 58.0103 327.258 69.5286C354.553 81.0468 400.045 713.398 447.812 684.602C495.579 655.806 518.325 54.5549 556.994 69.5286C595.662 84.5023 634.33 561.357 675.273 550.99C716.216 540.624 743.511 190.47 786.729 203.14C829.947 215.81 864.066 439.264 909.558 416.227C955.05 393.191 948.226 312.563 982.345 326.385C1016.46 340.207 1055.13 360.94 1066.51 354.029C1077.88 347.118 1143.84 254.972 1164.31 266.49C1184.79 278.008 1243.93 487.64 1264.4 479.577C1284.87 471.515 1355.38 121.361 1382.68 136.334C1409.97 151.308 1460.01 628.163 1500.96 613.189C1541.9 598.215 1580.57 0.419204 1612.41 5.02649C1644.26 9.63379 1689.75 620.1 1723.87 616.644C1757.99 613.189 1803.48 129.423 1842.15 136.334C1880.82 143.245 1905.84 485.337 1955.88 480.729C2005.92 476.122 2019.57 268.794 2058.24 273.401C2096.9 278.009 2137.85 363.243 2165.14 355.181C2186.98 348.73 2193.95 343.278 2194.71 341.359" stroke="#05ADF2" stroke-width="9.76875" stroke-linecap="round"/>
<path d="M470.137 510C446.284 467.634 420.473 425.802 392.704 384.504C364.934 343.206 335.385 304.222 304.056 267.553V510H221.816V139.921H289.637C301.385 151.669 314.38 166.088 328.621 183.177C342.861 200.266 357.28 218.6 371.877 238.181C386.829 257.406 401.604 277.521 416.201 298.526C430.798 319.175 444.504 339.112 457.321 358.337V139.921H540.095V510H470.137ZM859.901 500.388C846.372 504.304 828.927 507.864 807.566 511.068C786.205 514.628 763.776 516.408 740.279 516.408C716.426 516.408 696.489 513.204 680.468 506.796C664.803 500.388 652.343 491.487 643.086 480.095C633.83 468.346 627.244 454.461 623.327 438.441C619.411 422.42 617.453 404.797 617.453 385.572V229.103H697.023V375.96C697.023 401.593 700.405 420.106 707.169 431.498C713.934 442.891 726.572 448.587 745.085 448.587C750.781 448.587 756.834 448.409 763.242 448.053C769.65 447.341 775.347 446.629 780.331 445.917V229.103H859.901V500.388ZM1114.56 371.688C1114.56 347.122 1109.04 327.541 1098 312.945C1086.97 297.992 1070.59 290.516 1048.87 290.516C1041.75 290.516 1035.17 290.872 1029.12 291.584C1023.06 291.94 1018.08 292.474 1014.16 293.186V436.839C1019.15 440.043 1025.56 442.713 1033.39 444.849C1041.58 446.985 1049.76 448.053 1057.95 448.053C1095.69 448.053 1114.56 422.598 1114.56 371.688ZM1195.73 369.551C1195.73 391.268 1193.06 411.027 1187.72 428.828C1182.38 446.629 1174.55 461.938 1164.22 474.754C1153.9 487.571 1141.08 497.539 1125.77 504.66C1110.47 511.78 1092.84 515.34 1072.91 515.34C1061.87 515.34 1051.54 514.272 1041.93 512.136C1032.32 510 1023.06 506.974 1014.16 503.058V608.795H934.593V238.715C941.713 236.579 949.902 234.621 959.158 232.841C968.415 230.705 978.027 228.925 987.996 227.501C998.32 226.077 1008.64 225.009 1018.97 224.297C1029.65 223.229 1039.8 222.695 1049.41 222.695C1072.55 222.695 1093.2 226.255 1111.36 233.375C1129.51 240.139 1144.82 249.93 1157.28 262.746C1169.74 275.207 1179.18 290.516 1185.58 308.673C1192.35 326.829 1195.73 347.122 1195.73 369.551ZM1243.53 371.688C1243.53 346.766 1247.27 325.049 1254.75 306.536C1262.58 287.668 1272.73 272.003 1285.19 259.542C1297.65 247.082 1311.89 237.647 1327.91 231.239C1344.29 224.831 1361.02 221.627 1378.11 221.627C1417.98 221.627 1449.49 233.909 1472.63 258.474C1495.77 282.683 1507.34 318.463 1507.34 365.813C1507.34 370.441 1507.17 375.604 1506.81 381.3C1506.45 386.64 1506.1 391.446 1505.74 395.719H1325.24C1327.02 412.095 1334.68 425.09 1348.2 434.702C1361.73 444.315 1379.89 449.121 1402.67 449.121C1417.27 449.121 1431.51 447.875 1445.4 445.383C1459.64 442.535 1471.21 439.153 1480.11 435.237L1490.79 499.854C1486.52 501.99 1480.82 504.126 1473.7 506.262C1466.58 508.398 1458.57 510.178 1449.67 511.602C1441.12 513.382 1431.87 514.806 1421.9 515.874C1411.93 516.942 1401.96 517.476 1391.99 517.476C1366.72 517.476 1344.64 513.738 1325.77 506.262C1307.26 498.785 1291.78 488.639 1279.31 475.822C1267.21 462.65 1258.13 447.163 1252.08 429.362C1246.38 411.561 1243.53 392.336 1243.53 371.688ZM1430.44 341.248C1430.09 334.484 1428.84 327.897 1426.71 321.489C1424.93 315.081 1421.9 309.385 1417.63 304.4C1413.71 299.416 1408.55 295.322 1402.14 292.118C1396.09 288.914 1388.43 287.312 1379.18 287.312C1370.28 287.312 1362.62 288.914 1356.21 292.118C1349.81 294.966 1344.47 298.882 1340.19 303.866C1335.92 308.851 1332.54 314.725 1330.05 321.489C1327.91 327.897 1326.31 334.484 1325.24 341.248H1430.44ZM1748.71 371.688C1748.71 347.122 1743.2 327.541 1732.16 312.945C1721.12 297.992 1704.75 290.516 1683.03 290.516C1675.91 290.516 1669.32 290.872 1663.27 291.584C1657.22 291.94 1652.23 292.474 1648.32 293.186V436.839C1653.3 440.043 1659.71 442.713 1667.54 444.849C1675.73 446.985 1683.92 448.053 1692.11 448.053C1729.85 448.053 1748.71 422.598 1748.71 371.688ZM1829.89 369.551C1829.89 391.268 1827.22 411.027 1821.88 428.828C1816.54 446.629 1808.7 461.938 1798.38 474.754C1788.05 487.571 1775.24 497.539 1759.93 504.66C1744.62 511.78 1727 515.34 1707.06 515.34C1696.02 515.34 1685.7 514.272 1676.09 512.136C1666.47 510 1657.22 506.974 1648.32 503.058V608.795H1568.75V238.715C1575.87 236.579 1584.06 234.621 1593.31 232.841C1602.57 230.705 1612.18 228.925 1622.15 227.501C1632.47 226.077 1642.8 225.009 1653.12 224.297C1663.8 223.229 1673.95 222.695 1683.56 222.695C1706.7 222.695 1727.35 226.255 1745.51 233.375C1763.67 240.139 1778.98 249.93 1791.44 262.746C1803.9 275.207 1813.33 290.516 1819.74 308.673C1826.5 326.829 1829.89 347.122 1829.89 369.551Z" fill="black"/>
<path d="M125.454 945C117.385 930.668 108.654 916.518 99.26 902.547C89.8662 888.577 79.8702 875.39 69.2721 862.985V945H41.452V819.81H64.3946C68.3689 823.784 72.7647 828.661 77.582 834.442C82.3993 840.223 87.2769 846.425 92.2147 853.049C97.2729 859.553 102.271 866.357 107.209 873.463C112.146 880.448 116.783 887.192 121.119 893.695V819.81H149.119V945H125.454ZM257.303 941.748C252.727 943.073 246.826 944.277 239.6 945.361C232.374 946.566 224.786 947.168 216.838 947.168C208.769 947.168 202.024 946.084 196.605 943.916C191.306 941.748 187.091 938.737 183.959 934.884C180.828 930.909 178.6 926.212 177.275 920.793C175.951 915.373 175.288 909.412 175.288 902.909V849.978H202.205V899.657C202.205 908.328 203.349 914.591 205.637 918.444C207.926 922.298 212.201 924.225 218.464 924.225C220.391 924.225 222.438 924.165 224.606 924.045C226.773 923.804 228.7 923.563 230.386 923.322V849.978H257.303V941.748ZM239.419 815.835L209.612 840.946L197.328 829.926L222.98 800.661L239.419 815.835ZM278.054 897.489C278.054 890.624 279.138 884.181 281.306 878.16C283.594 872.017 286.846 866.718 291.061 862.262C295.276 857.686 300.394 854.073 306.416 851.423C312.438 848.774 319.303 847.449 327.01 847.449C332.068 847.449 336.705 847.931 340.92 848.894C345.135 849.737 349.23 851.002 353.204 852.688L347.604 874.185C345.075 873.222 342.305 872.379 339.294 871.656C336.284 870.933 332.911 870.572 329.178 870.572C321.229 870.572 315.268 873.041 311.294 877.979C307.44 882.917 305.513 889.42 305.513 897.489C305.513 906.04 307.319 912.664 310.932 917.361C314.666 922.057 321.109 924.406 330.262 924.406C333.514 924.406 337.006 924.105 340.74 923.503C344.473 922.9 347.905 921.937 351.037 920.612L354.83 942.652C351.699 943.976 347.785 945.12 343.088 946.084C338.391 947.047 333.213 947.529 327.552 947.529C318.881 947.529 311.414 946.265 305.152 943.735C298.889 941.086 293.71 937.533 289.616 933.077C285.641 928.621 282.691 923.382 280.764 917.361C278.957 911.218 278.054 904.595 278.054 897.489ZM410.832 946.807C403.004 946.686 396.621 945.843 391.683 944.277C386.866 942.712 383.012 940.544 380.121 937.774C377.351 934.884 375.424 931.451 374.341 927.477C373.377 923.382 372.895 918.806 372.895 913.748V809.151L399.812 804.816V908.328C399.812 910.737 399.993 912.905 400.354 914.831C400.715 916.758 401.378 918.384 402.341 919.709C403.425 921.034 404.931 922.118 406.858 922.961C408.784 923.804 411.374 924.346 414.626 924.587L410.832 946.807ZM425.538 898.212C425.538 889.781 426.802 882.435 429.332 876.172C431.981 869.789 435.413 864.49 439.629 860.275C443.844 856.06 448.661 852.869 454.081 850.701C459.621 848.533 465.281 847.449 471.062 847.449C484.55 847.449 495.209 851.604 503.037 859.914C510.865 868.103 514.779 880.207 514.779 896.224C514.779 897.79 514.719 899.536 514.598 901.463C514.478 903.27 514.357 904.896 514.237 906.341H453.177C453.779 911.881 456.369 916.277 460.945 919.528C465.522 922.78 471.664 924.406 479.372 924.406C484.309 924.406 489.127 923.984 493.824 923.141C498.641 922.178 502.555 921.034 505.566 919.709L509.179 941.568C507.734 942.29 505.807 943.013 503.398 943.735C500.989 944.458 498.28 945.06 495.269 945.542C492.378 946.144 489.247 946.626 485.875 946.987C482.503 947.348 479.131 947.529 475.759 947.529C467.208 947.529 459.741 946.265 453.358 943.735C447.095 941.206 441.857 937.774 437.641 933.438C433.547 928.982 430.476 923.744 428.428 917.722C426.501 911.7 425.538 905.197 425.538 898.212ZM488.765 887.915C488.645 885.626 488.223 883.398 487.501 881.231C486.899 879.063 485.875 877.136 484.43 875.45C483.105 873.764 481.359 872.379 479.191 871.295C477.144 870.211 474.554 869.669 471.423 869.669C468.412 869.669 465.823 870.211 463.655 871.295C461.487 872.258 459.681 873.583 458.236 875.269C456.79 876.955 455.646 878.942 454.803 881.231C454.081 883.398 453.539 885.626 453.177 887.915H488.765ZM624.431 897.308C624.431 904.775 623.347 911.64 621.179 917.902C619.011 924.045 615.88 929.344 611.785 933.8C607.69 938.135 602.753 941.507 596.972 943.916C591.312 946.325 584.929 947.529 577.823 947.529C570.838 947.529 564.455 946.325 558.674 943.916C553.014 941.507 548.136 938.135 544.041 933.8C539.947 929.344 536.755 924.045 534.467 917.902C532.179 911.64 531.035 904.775 531.035 897.308C531.035 889.842 532.179 883.037 534.467 876.895C536.876 870.753 540.127 865.514 544.222 861.178C548.437 856.843 553.375 853.471 559.035 851.062C564.816 848.653 571.079 847.449 577.823 847.449C584.688 847.449 590.95 848.653 596.611 851.062C602.391 853.471 607.329 856.843 611.424 861.178C615.519 865.514 618.71 870.753 620.998 876.895C623.287 883.037 624.431 889.842 624.431 897.308ZM596.972 897.308C596.972 888.999 595.286 882.495 591.914 877.798C588.662 872.981 583.965 870.572 577.823 870.572C571.681 870.572 566.924 872.981 563.552 877.798C560.18 882.495 558.493 888.999 558.493 897.308C558.493 905.618 560.18 912.242 563.552 917.18C566.924 921.997 571.681 924.406 577.823 924.406C583.965 924.406 588.662 921.997 591.914 917.18C595.286 912.242 596.972 905.618 596.972 897.308ZM711.623 896.766C711.623 905.076 713.489 911.76 717.223 916.819C720.956 921.877 726.496 924.406 733.842 924.406C736.251 924.406 738.479 924.346 740.527 924.225C742.574 923.984 744.26 923.744 745.585 923.503V874.546C743.899 873.463 741.671 872.559 738.901 871.837C736.251 871.114 733.541 870.753 730.771 870.753C718.006 870.753 711.623 879.424 711.623 896.766ZM772.502 941.929C770.093 942.652 767.323 943.374 764.192 944.097C761.06 944.699 757.749 945.241 754.256 945.723C750.884 946.204 747.391 946.566 743.778 946.807C740.286 947.168 736.914 947.348 733.662 947.348C725.834 947.348 718.849 946.204 712.706 943.916C706.564 941.628 701.386 938.376 697.171 934.161C692.955 929.825 689.704 924.647 687.415 918.625C685.248 912.483 684.164 905.618 684.164 898.031C684.164 890.323 685.127 883.398 687.054 877.256C688.981 870.994 691.751 865.695 695.364 861.359C698.977 857.023 703.373 853.712 708.551 851.423C713.851 849.135 719.872 847.991 726.616 847.991C730.35 847.991 733.662 848.352 736.552 849.075C739.563 849.797 742.574 850.821 745.585 852.146V809.151L772.502 804.816V941.929ZM793.189 898.212C793.189 889.781 794.453 882.435 796.982 876.172C799.632 869.789 803.064 864.49 807.28 860.275C811.495 856.06 816.312 852.869 821.732 850.701C827.271 848.533 832.932 847.449 838.713 847.449C852.201 847.449 862.86 851.604 870.688 859.914C878.516 868.103 882.43 880.207 882.43 896.224C882.43 897.79 882.37 899.536 882.249 901.463C882.129 903.27 882.008 904.896 881.888 906.341H820.828C821.43 911.881 824.02 916.277 828.596 919.528C833.173 922.78 839.315 924.406 847.023 924.406C851.96 924.406 856.778 923.984 861.475 923.141C866.292 922.178 870.206 921.034 873.217 919.709L876.83 941.568C875.385 942.29 873.458 943.013 871.049 943.735C868.64 944.458 865.931 945.06 862.92 945.542C860.029 946.144 856.898 946.626 853.526 946.987C850.154 947.348 846.782 947.529 843.41 947.529C834.859 947.529 827.392 946.265 821.009 943.735C814.746 941.206 809.508 937.774 805.292 933.438C801.198 928.982 798.127 923.744 796.079 917.722C794.152 911.7 793.189 905.197 793.189 898.212ZM856.416 887.915C856.296 885.626 855.874 883.398 855.152 881.231C854.55 879.063 853.526 877.136 852.081 875.45C850.756 873.764 849.01 872.379 846.842 871.295C844.795 870.211 842.205 869.669 839.074 869.669C836.063 869.669 833.474 870.211 831.306 871.295C829.138 872.258 827.332 873.583 825.886 875.269C824.441 876.955 823.297 878.942 822.454 881.231C821.732 883.398 821.19 885.626 820.828 887.915H856.416ZM985.982 818.364C1004.65 818.364 1018.98 821.676 1028.98 828.3C1038.97 834.804 1043.97 845.522 1043.97 860.456C1043.97 875.51 1038.91 886.409 1028.8 893.153C1018.68 899.777 1004.23 903.089 985.44 903.089H976.588V945H948.407V821.616C954.549 820.412 961.052 819.569 967.917 819.087C974.782 818.605 980.803 818.364 985.982 818.364ZM987.788 842.391C985.741 842.391 983.694 842.451 981.646 842.571C979.719 842.692 978.033 842.812 976.588 842.933V879.063H985.44C995.195 879.063 1002.54 877.738 1007.48 875.088C1012.42 872.439 1014.89 867.501 1014.89 860.275C1014.89 856.783 1014.22 853.892 1012.9 851.604C1011.69 849.316 1009.89 847.509 1007.48 846.184C1005.19 844.739 1002.36 843.776 998.989 843.294C995.617 842.692 991.883 842.391 987.788 842.391ZM1055.7 898.212C1055.7 889.781 1056.96 882.435 1059.49 876.172C1062.14 869.789 1065.57 864.49 1069.79 860.275C1074 856.06 1078.82 852.869 1084.24 850.701C1089.78 848.533 1095.44 847.449 1101.22 847.449C1114.71 847.449 1125.37 851.604 1133.19 859.914C1141.02 868.103 1144.94 880.207 1144.94 896.224C1144.94 897.79 1144.88 899.536 1144.76 901.463C1144.64 903.27 1144.52 904.896 1144.39 906.341H1083.34C1083.94 911.881 1086.53 916.277 1091.1 919.528C1095.68 922.78 1101.82 924.406 1109.53 924.406C1114.47 924.406 1119.28 923.984 1123.98 923.141C1128.8 922.178 1132.71 921.034 1135.72 919.709L1139.34 941.568C1137.89 942.29 1135.96 943.013 1133.56 943.735C1131.15 944.458 1128.44 945.06 1125.43 945.542C1122.54 946.144 1119.41 946.626 1116.03 946.987C1112.66 947.348 1109.29 947.529 1105.92 947.529C1097.37 947.529 1089.9 946.265 1083.52 943.735C1077.25 941.206 1072.01 937.774 1067.8 933.438C1063.7 928.982 1060.63 923.744 1058.59 917.722C1056.66 911.7 1055.7 905.197 1055.7 898.212ZM1118.92 887.915C1118.8 885.626 1118.38 883.398 1117.66 881.231C1117.06 879.063 1116.03 877.136 1114.59 875.45C1113.26 873.764 1111.52 872.379 1109.35 871.295C1107.3 870.211 1104.71 869.669 1101.58 869.669C1098.57 869.669 1095.98 870.211 1093.81 871.295C1091.65 872.258 1089.84 873.583 1088.39 875.269C1086.95 876.955 1085.8 878.942 1084.96 881.231C1084.24 883.398 1083.7 885.626 1083.34 887.915H1118.92ZM1192.99 925.67C1197.92 925.67 1201.42 925.189 1203.46 924.225C1205.51 923.262 1206.54 921.395 1206.54 918.625C1206.54 916.457 1205.21 914.591 1202.56 913.025C1199.91 911.339 1195.88 909.472 1190.46 907.425C1186.24 905.859 1182.39 904.233 1178.9 902.547C1175.52 900.861 1172.63 898.874 1170.23 896.586C1167.82 894.177 1165.95 891.347 1164.62 888.095C1163.3 884.844 1162.64 880.929 1162.64 876.353C1162.64 867.441 1165.95 860.396 1172.57 855.217C1179.2 850.038 1188.29 847.449 1199.85 847.449C1205.63 847.449 1211.17 847.991 1216.47 849.075C1221.77 850.038 1225.99 851.122 1229.12 852.327L1224.42 873.282C1221.29 872.198 1217.86 871.235 1214.12 870.392C1210.51 869.549 1206.42 869.127 1201.84 869.127C1193.41 869.127 1189.19 871.475 1189.19 876.172C1189.19 877.256 1189.37 878.22 1189.74 879.063C1190.1 879.906 1190.82 880.749 1191.9 881.592C1192.99 882.314 1194.43 883.157 1196.24 884.121C1198.17 884.964 1200.57 885.927 1203.46 887.011C1209.37 889.179 1214.24 891.347 1218.1 893.515C1221.95 895.562 1224.96 897.85 1227.13 900.379C1229.42 902.788 1230.98 905.498 1231.83 908.509C1232.79 911.52 1233.27 915.012 1233.27 918.986C1233.27 928.38 1229.72 935.486 1222.61 940.303C1215.63 945.12 1205.69 947.529 1192.81 947.529C1184.38 947.529 1177.33 946.806 1171.67 945.361C1166.13 943.916 1162.28 942.712 1160.11 941.748L1164.62 919.89C1169.2 921.696 1173.9 923.141 1178.72 924.225C1183.53 925.189 1188.29 925.67 1192.99 925.67ZM1276.33 898.212C1276.33 915.434 1282.71 924.045 1295.48 924.045C1298.25 924.045 1300.96 923.683 1303.61 922.961C1306.38 922.238 1308.61 921.335 1310.29 920.251V871.656C1308.97 871.415 1307.28 871.235 1305.23 871.114C1303.19 870.873 1300.96 870.753 1298.55 870.753C1291.2 870.753 1285.66 873.282 1281.93 878.34C1278.2 883.278 1276.33 889.902 1276.33 898.212ZM1248.87 897.489C1248.87 890.143 1249.96 883.459 1252.12 877.437C1254.41 871.295 1257.66 866.056 1261.88 861.72C1266.09 857.264 1271.27 853.832 1277.41 851.423C1283.56 849.015 1290.54 847.81 1298.37 847.81C1301.62 847.81 1304.99 847.991 1308.49 848.352C1312.1 848.593 1315.59 848.954 1318.96 849.436C1322.46 849.918 1325.77 850.52 1328.9 851.243C1332.03 851.845 1334.8 852.507 1337.21 853.23V978.42H1310.29V942.652C1307.28 943.976 1304.15 945 1300.9 945.723C1297.65 946.445 1294.15 946.807 1290.42 946.807C1276.93 946.807 1266.64 942.411 1259.53 933.619C1252.42 924.707 1248.87 912.664 1248.87 897.489ZM1443.52 941.748C1438.95 943.073 1433.05 944.277 1425.82 945.361C1418.59 946.566 1411.01 947.168 1403.06 947.168C1394.99 947.168 1388.25 946.084 1382.83 943.916C1377.53 941.748 1373.31 938.737 1370.18 934.884C1367.05 930.909 1364.82 926.212 1363.5 920.793C1362.17 915.373 1361.51 909.412 1361.51 902.909V849.978H1388.43V899.657C1388.43 908.328 1389.57 914.591 1391.86 918.444C1394.15 922.298 1398.42 924.225 1404.68 924.225C1406.61 924.225 1408.66 924.165 1410.83 924.045C1412.99 923.804 1414.92 923.563 1416.61 923.322V849.978H1443.52V941.748ZM1495.71 945H1468.79V849.978H1495.71V945ZM1498.24 822.519C1498.24 827.457 1496.61 831.371 1493.36 834.262C1490.23 837.032 1486.5 838.416 1482.16 838.416C1477.82 838.416 1474.03 837.032 1470.78 834.262C1467.65 831.371 1466.08 827.457 1466.08 822.519C1466.08 817.582 1467.65 813.728 1470.78 810.958C1474.03 808.067 1477.82 806.622 1482.16 806.622C1486.5 806.622 1490.23 808.067 1493.36 810.958C1496.61 813.728 1498.24 817.582 1498.24 822.519ZM1548.29 925.67C1553.23 925.67 1556.72 925.189 1558.77 924.225C1560.81 923.262 1561.84 921.395 1561.84 918.625C1561.84 916.457 1560.51 914.591 1557.86 913.025C1555.21 911.339 1551.18 909.472 1545.76 907.425C1541.54 905.859 1537.69 904.233 1534.2 902.547C1530.83 900.861 1527.94 898.874 1525.53 896.586C1523.12 894.177 1521.25 891.347 1519.93 888.095C1518.6 884.844 1517.94 880.929 1517.94 876.353C1517.94 867.441 1521.25 860.396 1527.88 855.217C1534.5 850.038 1543.59 847.449 1555.15 847.449C1560.93 847.449 1566.47 847.991 1571.77 849.075C1577.07 850.038 1581.29 851.122 1584.42 852.327L1579.72 873.282C1576.59 872.198 1573.16 871.235 1569.42 870.392C1565.81 869.549 1561.72 869.127 1557.14 869.127C1548.71 869.127 1544.5 871.475 1544.5 876.172C1544.5 877.256 1544.68 878.22 1545.04 879.063C1545.4 879.906 1546.12 880.749 1547.2 881.592C1548.29 882.314 1549.73 883.157 1551.54 884.121C1553.47 884.964 1555.88 885.927 1558.77 887.011C1564.67 889.179 1569.55 891.347 1573.4 893.515C1577.25 895.562 1580.26 897.85 1582.43 900.379C1584.72 902.788 1586.29 905.498 1587.13 908.509C1588.09 911.52 1588.57 915.012 1588.57 918.986C1588.57 928.38 1585.02 935.486 1577.92 940.303C1570.93 945.12 1560.99 947.529 1548.11 947.529C1539.68 947.529 1532.63 946.806 1526.97 945.361C1521.43 943.916 1517.58 942.712 1515.41 941.748L1519.93 919.89C1524.5 921.696 1529.2 923.141 1534.02 924.225C1538.83 925.189 1543.59 925.67 1548.29 925.67ZM1645 926.212C1647.65 926.212 1650.18 926.152 1652.59 926.032C1655 925.911 1656.92 925.731 1658.37 925.49V905.076C1657.28 904.835 1655.66 904.595 1653.49 904.354C1651.32 904.113 1649.34 903.992 1647.53 903.992C1645 903.992 1642.59 904.173 1640.3 904.534C1638.14 904.775 1636.21 905.317 1634.52 906.16C1632.84 907.003 1631.51 908.147 1630.55 909.593C1629.58 911.038 1629.1 912.844 1629.1 915.012C1629.1 919.227 1630.49 922.178 1633.26 923.864C1636.15 925.43 1640.06 926.212 1645 926.212ZM1642.83 847.449C1650.78 847.449 1657.4 848.352 1662.7 850.159C1668 851.965 1672.22 854.555 1675.35 857.927C1678.6 861.299 1680.89 865.394 1682.21 870.211C1683.54 875.028 1684.2 880.388 1684.2 886.289V942.29C1680.35 943.133 1674.99 944.097 1668.12 945.181C1661.26 946.385 1652.95 946.987 1643.19 946.987C1637.05 946.987 1631.45 946.445 1626.39 945.361C1621.46 944.277 1617.18 942.531 1613.57 940.122C1609.95 937.593 1607.18 934.342 1605.26 930.367C1603.33 926.393 1602.37 921.515 1602.37 915.735C1602.37 910.195 1603.45 905.498 1605.62 901.644C1607.91 897.79 1610.92 894.719 1614.65 892.431C1618.38 890.143 1622.66 888.517 1627.48 887.553C1632.29 886.469 1637.29 885.927 1642.47 885.927C1645.96 885.927 1649.03 886.108 1651.68 886.469C1654.45 886.71 1656.68 887.072 1658.37 887.553V885.024C1658.37 880.448 1656.98 876.775 1654.21 874.005C1651.44 871.235 1646.63 869.85 1639.76 869.85C1635.18 869.85 1630.67 870.211 1626.21 870.933C1621.76 871.536 1617.9 872.439 1614.65 873.643L1611.22 851.965C1612.78 851.484 1614.71 851.002 1617 850.52C1619.41 849.918 1622 849.436 1624.77 849.075C1627.54 848.593 1630.43 848.232 1633.44 847.991C1636.57 847.63 1639.7 847.449 1642.83 847.449ZM1747.42 898.212C1747.42 889.781 1748.69 882.435 1751.22 876.172C1753.87 869.789 1757.3 864.49 1761.51 860.275C1765.73 856.06 1770.55 852.869 1775.97 850.701C1781.51 848.533 1787.17 847.449 1792.95 847.449C1806.44 847.449 1817.09 851.604 1824.92 859.914C1832.75 868.103 1836.66 880.207 1836.66 896.224C1836.66 897.79 1836.6 899.536 1836.48 901.463C1836.36 903.27 1836.24 904.896 1836.12 906.341H1775.06C1775.66 911.881 1778.25 916.277 1782.83 919.528C1787.41 922.78 1793.55 924.406 1801.26 924.406C1806.19 924.406 1811.01 923.984 1815.71 923.141C1820.53 922.178 1824.44 921.034 1827.45 919.709L1831.06 941.568C1829.62 942.29 1827.69 943.013 1825.28 943.735C1822.87 944.458 1820.16 945.06 1817.15 945.542C1814.26 946.144 1811.13 946.626 1807.76 946.987C1804.39 947.348 1801.02 947.529 1797.64 947.529C1789.09 947.529 1781.63 946.265 1775.24 943.735C1768.98 941.206 1763.74 937.774 1759.53 933.438C1755.43 928.982 1752.36 923.744 1750.31 917.722C1748.39 911.7 1747.42 905.197 1747.42 898.212ZM1810.65 887.915C1810.53 885.626 1810.11 883.398 1809.39 881.231C1808.78 879.063 1807.76 877.136 1806.31 875.45C1804.99 873.764 1803.24 872.379 1801.08 871.295C1799.03 870.211 1796.44 869.669 1793.31 869.669C1790.3 869.669 1787.71 870.211 1785.54 871.295C1783.37 872.258 1781.57 873.583 1780.12 875.269C1778.68 876.955 1777.53 878.942 1776.69 881.231C1775.97 883.398 1775.42 885.626 1775.06 887.915H1810.65ZM1909.64 894.599C1909.64 885.927 1908.5 879.785 1906.21 876.172C1904.04 872.559 1900.25 870.753 1894.83 870.753C1893.14 870.753 1891.4 870.873 1889.59 871.114C1887.79 871.235 1886.04 871.415 1884.35 871.656V945H1857.44V853.23C1859.72 852.628 1862.37 852.025 1865.38 851.423C1868.52 850.701 1871.77 850.099 1875.14 849.617C1878.63 849.015 1882.19 848.593 1885.8 848.352C1889.41 847.991 1892.96 847.81 1896.46 847.81C1903.32 847.81 1908.86 848.714 1913.08 850.52C1917.41 852.206 1920.96 854.253 1923.73 856.662C1927.59 853.892 1931.98 851.724 1936.92 850.159C1941.98 848.593 1946.62 847.81 1950.83 847.81C1958.42 847.81 1964.62 848.894 1969.44 851.062C1974.38 853.109 1978.29 856.06 1981.18 859.914C1984.07 863.768 1986.06 868.344 1987.14 873.643C1988.23 878.942 1988.77 884.844 1988.77 891.347V945H1961.85V894.599C1961.85 885.927 1960.71 879.785 1958.42 876.172C1956.25 872.559 1952.46 870.753 1947.04 870.753C1945.59 870.753 1943.55 871.114 1940.9 871.837C1938.37 872.559 1936.26 873.463 1934.57 874.546C1935.42 877.316 1935.96 880.267 1936.2 883.398C1936.44 886.409 1936.56 889.661 1936.56 893.153V945H1909.64V894.599ZM41.452 1153V1027.81H125.996V1051.47H69.6334V1076.04H119.673V1099.17H69.6334V1129.33H130.151V1153H41.452ZM187.136 1154.81C179.308 1154.69 172.925 1153.84 167.987 1152.28C163.17 1150.71 159.316 1148.54 156.426 1145.77C153.656 1142.88 151.729 1139.45 150.645 1135.48C149.682 1131.38 149.2 1126.81 149.2 1121.75V1017.15L176.117 1012.82V1116.33C176.117 1118.74 176.297 1120.9 176.659 1122.83C177.02 1124.76 177.682 1126.38 178.646 1127.71C179.73 1129.03 181.235 1130.12 183.162 1130.96C185.089 1131.8 187.678 1132.35 190.93 1132.59L187.136 1154.81ZM201.842 1106.21C201.842 1097.78 203.107 1090.43 205.636 1084.17C208.286 1077.79 211.718 1072.49 215.933 1068.28C220.148 1064.06 224.966 1060.87 230.385 1058.7C235.925 1056.53 241.585 1055.45 247.366 1055.45C260.855 1055.45 271.513 1059.6 279.341 1067.91C287.169 1076.1 291.083 1088.21 291.083 1104.22C291.083 1105.79 291.023 1107.54 290.903 1109.46C290.782 1111.27 290.662 1112.9 290.542 1114.34H229.482C230.084 1119.88 232.673 1124.28 237.25 1127.53C241.826 1130.78 247.968 1132.41 255.676 1132.41C260.614 1132.41 265.431 1131.98 270.128 1131.14C274.945 1130.18 278.86 1129.03 281.87 1127.71L285.483 1149.57C284.038 1150.29 282.111 1151.01 279.703 1151.74C277.294 1152.46 274.584 1153.06 271.573 1153.54C268.683 1154.14 265.552 1154.63 262.179 1154.99C258.807 1155.35 255.435 1155.53 252.063 1155.53C243.512 1155.53 236.045 1154.26 229.662 1151.74C223.4 1149.21 218.161 1145.77 213.946 1141.44C209.851 1136.98 206.78 1131.74 204.733 1125.72C202.806 1119.7 201.842 1113.2 201.842 1106.21ZM265.07 1095.91C264.949 1093.63 264.528 1091.4 263.805 1089.23C263.203 1087.06 262.179 1085.14 260.734 1083.45C259.41 1081.76 257.663 1080.38 255.495 1079.29C253.448 1078.21 250.859 1077.67 247.727 1077.67C244.717 1077.67 242.127 1078.21 239.96 1079.29C237.792 1080.26 235.985 1081.58 234.54 1083.27C233.095 1084.96 231.951 1086.94 231.108 1089.23C230.385 1091.4 229.843 1093.63 229.482 1095.91H265.07ZM310.952 1034.31L337.869 1029.98V1057.98H370.205V1080.38H337.869V1113.8C337.869 1119.46 338.832 1123.98 340.759 1127.35C342.807 1130.72 346.841 1132.41 352.863 1132.41C355.753 1132.41 358.704 1132.17 361.715 1131.68C364.846 1131.08 367.676 1130.3 370.205 1129.33L373.999 1150.29C370.747 1151.62 367.134 1152.76 363.16 1153.72C359.186 1154.69 354.308 1155.17 348.527 1155.17C341.181 1155.17 335.099 1154.2 330.282 1152.28C325.464 1150.23 321.61 1147.46 318.72 1143.97C315.83 1140.35 313.782 1136.02 312.578 1130.96C311.494 1125.9 310.952 1120.3 310.952 1114.16V1034.31ZM449.391 1081.82C446.982 1081.22 444.152 1080.62 440.9 1080.02C437.648 1079.29 434.156 1078.93 430.422 1078.93C428.736 1078.93 426.689 1079.11 424.28 1079.48C421.992 1079.72 420.246 1080.02 419.042 1080.38V1153H392.125V1063.04C396.942 1061.35 402.602 1059.78 409.106 1058.34C415.73 1056.77 423.076 1055.99 431.145 1055.99C432.59 1055.99 434.337 1056.11 436.384 1056.35C438.431 1056.47 440.479 1056.71 442.526 1057.07C444.573 1057.32 446.621 1057.68 448.668 1058.16C450.716 1058.52 452.462 1059 453.907 1059.6L449.391 1081.82ZM555.452 1105.31C555.452 1112.78 554.368 1119.64 552.2 1125.9C550.033 1132.04 546.901 1137.34 542.807 1141.8C538.712 1146.14 533.774 1149.51 527.993 1151.92C522.333 1154.32 515.95 1155.53 508.844 1155.53C501.859 1155.53 495.476 1154.32 489.695 1151.92C484.035 1149.51 479.158 1146.14 475.063 1141.8C470.968 1137.34 467.777 1132.04 465.488 1125.9C463.2 1119.64 462.056 1112.78 462.056 1105.31C462.056 1097.84 463.2 1091.04 465.488 1084.89C467.897 1078.75 471.149 1073.51 475.243 1069.18C479.459 1064.84 484.396 1061.47 490.057 1059.06C495.838 1056.65 502.1 1055.45 508.844 1055.45C515.709 1055.45 521.972 1056.65 527.632 1059.06C533.413 1061.47 538.351 1064.84 542.445 1069.18C546.54 1073.51 549.731 1078.75 552.02 1084.89C554.308 1091.04 555.452 1097.84 555.452 1105.31ZM527.993 1105.31C527.993 1097 526.307 1090.5 522.935 1085.8C519.683 1080.98 514.986 1078.57 508.844 1078.57C502.702 1078.57 497.945 1080.98 494.573 1085.8C491.201 1090.5 489.515 1097 489.515 1105.31C489.515 1113.62 491.201 1120.24 494.573 1125.18C497.945 1130 502.702 1132.41 508.844 1132.41C514.986 1132.41 519.683 1130 522.935 1125.18C526.307 1120.24 527.993 1113.62 527.993 1105.31ZM536.664 1036.48L526.729 1048.4L508.664 1034.49L490.599 1048.4L480.302 1036.48L508.664 1011.73L536.664 1036.48ZM576.303 1061.23C580.879 1059.91 586.781 1058.7 594.007 1057.62C601.233 1056.41 608.82 1055.81 616.769 1055.81C624.838 1055.81 631.522 1056.89 636.821 1059.06C642.24 1061.11 646.516 1064.06 649.647 1067.91C652.778 1071.77 655.006 1076.34 656.331 1081.64C657.656 1086.94 658.318 1092.84 658.318 1099.35V1153H631.401V1102.6C631.401 1093.93 630.257 1087.79 627.969 1084.17C625.681 1080.56 621.405 1078.75 615.143 1078.75C613.216 1078.75 611.168 1078.87 609.001 1079.11C606.833 1079.23 604.906 1079.42 603.22 1079.66V1153H576.303V1061.23ZM709.599 1153H682.682V1057.98H709.599V1153ZM712.128 1030.52C712.128 1035.46 710.502 1039.37 707.25 1042.26C704.119 1045.03 700.386 1046.42 696.05 1046.42C691.714 1046.42 687.921 1045.03 684.669 1042.26C681.538 1039.37 679.972 1035.46 679.972 1030.52C679.972 1025.58 681.538 1021.73 684.669 1018.96C687.921 1016.07 691.714 1014.62 696.05 1014.62C700.386 1014.62 704.119 1016.07 707.25 1018.96C710.502 1021.73 712.128 1025.58 712.128 1030.52ZM730.385 1105.49C730.385 1098.62 731.469 1092.18 733.636 1086.16C735.925 1080.02 739.176 1074.72 743.392 1070.26C747.607 1065.69 752.725 1062.07 758.747 1059.42C764.768 1056.77 771.633 1055.45 779.341 1055.45C784.399 1055.45 789.036 1055.93 793.251 1056.89C797.466 1057.74 801.561 1059 805.535 1060.69L799.935 1082.19C797.406 1081.22 794.636 1080.38 791.625 1079.66C788.614 1078.93 785.242 1078.57 781.509 1078.57C773.56 1078.57 767.599 1081.04 763.624 1085.98C759.77 1090.92 757.844 1097.42 757.844 1105.49C757.844 1114.04 759.65 1120.66 763.263 1125.36C766.996 1130.06 773.44 1132.41 782.593 1132.41C785.844 1132.41 789.337 1132.1 793.07 1131.5C796.804 1130.9 800.236 1129.94 803.367 1128.61L807.161 1150.65C804.03 1151.98 800.116 1153.12 795.419 1154.08C790.722 1155.05 785.543 1155.53 779.883 1155.53C771.212 1155.53 763.745 1154.26 757.482 1151.74C751.22 1149.09 746.041 1145.53 741.946 1141.08C737.972 1136.62 735.021 1131.38 733.094 1125.36C731.288 1119.22 730.385 1112.59 730.385 1105.49ZM856.95 1134.21C859.599 1134.21 862.128 1134.15 864.537 1134.03C866.946 1133.91 868.873 1133.73 870.318 1133.49V1113.08C869.234 1112.84 867.608 1112.59 865.44 1112.35C863.273 1112.11 861.285 1111.99 859.479 1111.99C856.95 1111.99 854.541 1112.17 852.253 1112.53C850.085 1112.78 848.158 1113.32 846.472 1114.16C844.786 1115 843.461 1116.15 842.498 1117.59C841.534 1119.04 841.053 1120.84 841.053 1123.01C841.053 1127.23 842.438 1130.18 845.208 1131.86C848.098 1133.43 852.012 1134.21 856.95 1134.21ZM854.782 1055.45C862.731 1055.45 869.354 1056.35 874.654 1058.16C879.953 1059.97 884.168 1062.55 887.299 1065.93C890.551 1069.3 892.839 1073.39 894.164 1078.21C895.488 1083.03 896.151 1088.39 896.151 1094.29V1150.29C892.297 1151.13 886.938 1152.1 880.073 1153.18C873.208 1154.38 864.898 1154.99 855.143 1154.99C849.001 1154.99 843.401 1154.45 838.343 1153.36C833.405 1152.28 829.13 1150.53 825.517 1148.12C821.904 1145.59 819.134 1142.34 817.207 1138.37C815.28 1134.39 814.316 1129.52 814.316 1123.73C814.316 1118.19 815.4 1113.5 817.568 1109.64C819.856 1105.79 822.867 1102.72 826.601 1100.43C830.334 1098.14 834.609 1096.52 839.427 1095.55C844.244 1094.47 849.242 1093.93 854.421 1093.93C857.913 1093.93 860.984 1094.11 863.634 1094.47C866.404 1094.71 868.632 1095.07 870.318 1095.55V1093.02C870.318 1088.45 868.933 1084.77 866.163 1082C863.393 1079.23 858.576 1077.85 851.711 1077.85C847.134 1077.85 842.618 1078.21 838.162 1078.93C833.706 1079.54 829.852 1080.44 826.601 1081.64L823.168 1059.97C824.734 1059.48 826.661 1059 828.949 1058.52C831.358 1057.92 833.947 1057.44 836.717 1057.07C839.487 1056.59 842.377 1056.23 845.388 1055.99C848.519 1055.63 851.651 1055.45 854.782 1055.45ZM986.832 1104.77C986.832 1113.08 988.698 1119.76 992.432 1124.82C996.165 1129.88 1001.71 1132.41 1009.05 1132.41C1011.46 1132.41 1013.69 1132.35 1015.74 1132.23C1017.78 1131.98 1019.47 1131.74 1020.79 1131.5V1082.55C1019.11 1081.46 1016.88 1080.56 1014.11 1079.84C1011.46 1079.11 1008.75 1078.75 1005.98 1078.75C993.214 1078.75 986.832 1087.42 986.832 1104.77ZM1047.71 1149.93C1045.3 1150.65 1042.53 1151.37 1039.4 1152.1C1036.27 1152.7 1032.96 1153.24 1029.46 1153.72C1026.09 1154.2 1022.6 1154.57 1018.99 1154.81C1015.49 1155.17 1012.12 1155.35 1008.87 1155.35C1001.04 1155.35 994.058 1154.2 987.915 1151.92C981.773 1149.63 976.595 1146.38 972.38 1142.16C968.164 1137.83 964.913 1132.65 962.624 1126.63C960.457 1120.48 959.373 1113.62 959.373 1106.03C959.373 1098.32 960.336 1091.4 962.263 1085.26C964.19 1078.99 966.96 1073.69 970.573 1069.36C974.186 1065.02 978.582 1061.71 983.76 1059.42C989.06 1057.14 995.081 1055.99 1001.83 1055.99C1005.56 1055.99 1008.87 1056.35 1011.76 1057.07C1014.77 1057.8 1017.78 1058.82 1020.79 1060.15V1017.15L1047.71 1012.82V1149.93ZM1068.4 1106.21C1068.4 1097.78 1069.66 1090.43 1072.19 1084.17C1074.84 1077.79 1078.27 1072.49 1082.49 1068.28C1086.7 1064.06 1091.52 1060.87 1096.94 1058.7C1102.48 1056.53 1108.14 1055.45 1113.92 1055.45C1127.41 1055.45 1138.07 1059.6 1145.9 1067.91C1153.72 1076.1 1157.64 1088.21 1157.64 1104.22C1157.64 1105.79 1157.58 1107.54 1157.46 1109.46C1157.34 1111.27 1157.22 1112.9 1157.1 1114.34H1096.04C1096.64 1119.88 1099.23 1124.28 1103.81 1127.53C1108.38 1130.78 1114.52 1132.41 1122.23 1132.41C1127.17 1132.41 1131.99 1131.98 1136.68 1131.14C1141.5 1130.18 1145.41 1129.03 1148.43 1127.71L1152.04 1149.57C1150.59 1150.29 1148.67 1151.01 1146.26 1151.74C1143.85 1152.46 1141.14 1153.06 1138.13 1153.54C1135.24 1154.14 1132.11 1154.63 1128.73 1154.99C1125.36 1155.35 1121.99 1155.53 1118.62 1155.53C1110.07 1155.53 1102.6 1154.26 1096.22 1151.74C1089.96 1149.21 1084.72 1145.77 1080.5 1141.44C1076.41 1136.98 1073.34 1131.74 1071.29 1125.72C1069.36 1119.7 1068.4 1113.2 1068.4 1106.21ZM1131.63 1095.91C1131.5 1093.63 1131.08 1091.4 1130.36 1089.23C1129.76 1087.06 1128.73 1085.14 1127.29 1083.45C1125.96 1081.76 1124.22 1080.38 1122.05 1079.29C1120 1078.21 1117.41 1077.67 1114.28 1077.67C1111.27 1077.67 1108.68 1078.21 1106.51 1079.29C1104.35 1080.26 1102.54 1081.58 1101.1 1083.27C1099.65 1084.96 1098.51 1086.94 1097.66 1089.23C1096.94 1091.4 1096.4 1093.63 1096.04 1095.91H1131.63ZM1261.19 1026.36C1279.86 1026.36 1294.19 1029.68 1304.19 1036.3C1314.18 1042.8 1319.18 1053.52 1319.18 1068.46C1319.18 1083.51 1314.12 1094.41 1304 1101.15C1293.89 1107.78 1279.44 1111.09 1260.65 1111.09H1251.8V1153H1223.62V1029.62C1229.76 1028.41 1236.26 1027.57 1243.13 1027.09C1249.99 1026.61 1256.01 1026.36 1261.19 1026.36ZM1263 1050.39C1260.95 1050.39 1258.9 1050.45 1256.86 1050.57C1254.93 1050.69 1253.24 1050.81 1251.8 1050.93V1087.06H1260.65C1270.4 1087.06 1277.75 1085.74 1282.69 1083.09C1287.63 1080.44 1290.09 1075.5 1290.09 1068.28C1290.09 1064.78 1289.43 1061.89 1288.11 1059.6C1286.9 1057.32 1285.1 1055.51 1282.69 1054.18C1280.4 1052.74 1277.57 1051.78 1274.2 1051.29C1270.83 1050.69 1267.09 1050.39 1263 1050.39ZM1424.3 1105.31C1424.3 1112.78 1423.22 1119.64 1421.05 1125.9C1418.88 1132.04 1415.75 1137.34 1411.66 1141.8C1407.56 1146.14 1402.62 1149.51 1396.84 1151.92C1391.18 1154.32 1384.8 1155.53 1377.69 1155.53C1370.71 1155.53 1364.33 1154.32 1358.54 1151.92C1352.88 1149.51 1348.01 1146.14 1343.91 1141.8C1339.82 1137.34 1336.63 1132.04 1334.34 1125.9C1332.05 1119.64 1330.9 1112.78 1330.9 1105.31C1330.9 1097.84 1332.05 1091.04 1334.34 1084.89C1336.75 1078.75 1340 1073.51 1344.09 1069.18C1348.31 1064.84 1353.25 1061.47 1358.91 1059.06C1364.69 1056.65 1370.95 1055.45 1377.69 1055.45C1384.56 1055.45 1390.82 1056.65 1396.48 1059.06C1402.26 1061.47 1407.2 1064.84 1411.29 1069.18C1415.39 1073.51 1418.58 1078.75 1420.87 1084.89C1423.16 1091.04 1424.3 1097.84 1424.3 1105.31ZM1396.84 1105.31C1396.84 1097 1395.16 1090.5 1391.78 1085.8C1388.53 1080.98 1383.84 1078.57 1377.69 1078.57C1371.55 1078.57 1366.79 1080.98 1363.42 1085.8C1360.05 1090.5 1358.36 1097 1358.36 1105.31C1358.36 1113.62 1360.05 1120.24 1363.42 1125.18C1366.79 1130 1371.55 1132.41 1377.69 1132.41C1383.84 1132.41 1388.53 1130 1391.78 1125.18C1395.16 1120.24 1396.84 1113.62 1396.84 1105.31ZM1444.25 1034.31L1471.17 1029.98V1057.98H1503.5V1080.38H1471.17V1113.8C1471.17 1119.46 1472.13 1123.98 1474.06 1127.35C1476.1 1130.72 1480.14 1132.41 1486.16 1132.41C1489.05 1132.41 1492 1132.17 1495.01 1131.68C1498.14 1131.08 1500.97 1130.3 1503.5 1129.33L1507.3 1150.29C1504.04 1151.62 1500.43 1152.76 1496.46 1153.72C1492.48 1154.69 1487.6 1155.17 1481.82 1155.17C1474.48 1155.17 1468.4 1154.2 1463.58 1152.28C1458.76 1150.23 1454.91 1147.46 1452.02 1143.97C1449.13 1140.35 1447.08 1136.02 1445.87 1130.96C1444.79 1125.9 1444.25 1120.3 1444.25 1114.16V1034.31ZM1517.38 1106.21C1517.38 1097.78 1518.64 1090.43 1521.17 1084.17C1523.82 1077.79 1527.25 1072.49 1531.47 1068.28C1535.68 1064.06 1540.5 1060.87 1545.92 1058.7C1551.46 1056.53 1557.12 1055.45 1562.9 1055.45C1576.39 1055.45 1587.05 1059.6 1594.88 1067.91C1602.7 1076.1 1606.62 1088.21 1606.62 1104.22C1606.62 1105.79 1606.56 1107.54 1606.44 1109.46C1606.32 1111.27 1606.2 1112.9 1606.08 1114.34H1545.02C1545.62 1119.88 1548.21 1124.28 1552.78 1127.53C1557.36 1130.78 1563.5 1132.41 1571.21 1132.41C1576.15 1132.41 1580.97 1131.98 1585.66 1131.14C1590.48 1130.18 1594.39 1129.03 1597.4 1127.71L1601.02 1149.57C1599.57 1150.29 1597.65 1151.01 1595.24 1151.74C1592.83 1152.46 1590.12 1153.06 1587.11 1153.54C1584.22 1154.14 1581.09 1154.63 1577.71 1154.99C1574.34 1155.35 1570.97 1155.53 1567.6 1155.53C1559.05 1155.53 1551.58 1154.26 1545.2 1151.74C1538.93 1149.21 1533.7 1145.77 1529.48 1141.44C1525.39 1136.98 1522.31 1131.74 1520.27 1125.72C1518.34 1119.7 1517.38 1113.2 1517.38 1106.21ZM1580.6 1095.91C1580.48 1093.63 1580.06 1091.4 1579.34 1089.23C1578.74 1087.06 1577.71 1085.14 1576.27 1083.45C1574.94 1081.76 1573.2 1080.38 1571.03 1079.29C1568.98 1078.21 1566.39 1077.67 1563.26 1077.67C1560.25 1077.67 1557.66 1078.21 1555.49 1079.29C1553.33 1080.26 1551.52 1081.58 1550.07 1083.27C1548.63 1084.96 1547.48 1086.94 1546.64 1089.23C1545.92 1091.4 1545.38 1093.63 1545.02 1095.91H1580.6ZM1590 1036.48L1580.06 1048.4L1562 1034.49L1543.93 1048.4L1533.64 1036.48L1562 1011.73L1590 1036.48ZM1627.39 1061.23C1631.97 1059.91 1637.87 1058.7 1645.09 1057.62C1652.32 1056.41 1659.91 1055.81 1667.86 1055.81C1675.92 1055.81 1682.61 1056.89 1687.91 1059.06C1693.33 1061.11 1697.6 1064.06 1700.73 1067.91C1703.86 1071.77 1706.09 1076.34 1707.42 1081.64C1708.74 1086.94 1709.4 1092.84 1709.4 1099.35V1153H1682.49V1102.6C1682.49 1093.93 1681.34 1087.79 1679.06 1084.17C1676.77 1080.56 1672.49 1078.75 1666.23 1078.75C1664.3 1078.75 1662.26 1078.87 1660.09 1079.11C1657.92 1079.23 1655.99 1079.42 1654.31 1079.66V1153H1627.39V1061.23ZM1729.25 1105.49C1729.25 1098.62 1730.34 1092.18 1732.5 1086.16C1734.79 1080.02 1738.04 1074.72 1742.26 1070.26C1746.47 1065.69 1751.59 1062.07 1757.61 1059.42C1763.64 1056.77 1770.5 1055.45 1778.21 1055.45C1783.27 1055.45 1787.9 1055.93 1792.12 1056.89C1796.33 1057.74 1800.43 1059 1804.4 1060.69L1798.8 1082.19C1796.27 1081.22 1793.5 1080.38 1790.49 1079.66C1787.48 1078.93 1784.11 1078.57 1780.38 1078.57C1772.43 1078.57 1766.47 1081.04 1762.49 1085.98C1758.64 1090.92 1756.71 1097.42 1756.71 1105.49C1756.71 1114.04 1758.52 1120.66 1762.13 1125.36C1765.86 1130.06 1772.31 1132.41 1781.46 1132.41C1784.71 1132.41 1788.2 1132.1 1791.94 1131.5C1795.67 1130.9 1799.1 1129.94 1802.23 1128.61L1806.03 1150.65C1802.9 1151.98 1798.98 1153.12 1794.29 1154.08C1789.59 1155.05 1784.41 1155.53 1778.75 1155.53C1770.08 1155.53 1762.61 1154.26 1756.35 1151.74C1750.09 1149.09 1744.91 1145.53 1740.81 1141.08C1736.84 1136.62 1733.89 1131.38 1731.96 1125.36C1730.16 1119.22 1729.25 1112.59 1729.25 1105.49ZM1851.01 1153H1824.09V1057.98H1851.01V1153ZM1853.54 1030.52C1853.54 1035.46 1851.91 1039.37 1848.66 1042.26C1845.53 1045.03 1841.8 1046.42 1837.46 1046.42C1833.13 1046.42 1829.33 1045.03 1826.08 1042.26C1822.95 1039.37 1821.38 1035.46 1821.38 1030.52C1821.38 1025.58 1822.95 1021.73 1826.08 1018.96C1829.33 1016.07 1833.13 1014.62 1837.46 1014.62C1841.8 1014.62 1845.53 1016.07 1848.66 1018.96C1851.91 1021.73 1853.54 1025.58 1853.54 1030.52ZM1912.62 1134.21C1915.27 1134.21 1917.8 1134.15 1920.21 1134.03C1922.62 1133.91 1924.55 1133.73 1925.99 1133.49V1113.08C1924.91 1112.84 1923.28 1112.59 1921.11 1112.35C1918.95 1112.11 1916.96 1111.99 1915.15 1111.99C1912.62 1111.99 1910.21 1112.17 1907.93 1112.53C1905.76 1112.78 1903.83 1113.32 1902.15 1114.16C1900.46 1115 1899.13 1116.15 1898.17 1117.59C1897.21 1119.04 1896.73 1120.84 1896.73 1123.01C1896.73 1127.23 1898.11 1130.18 1900.88 1131.86C1903.77 1133.43 1907.69 1134.21 1912.62 1134.21ZM1910.46 1055.45C1918.4 1055.45 1925.03 1056.35 1930.33 1058.16C1935.63 1059.97 1939.84 1062.55 1942.97 1065.93C1946.22 1069.3 1948.51 1073.39 1949.84 1078.21C1951.16 1083.03 1951.82 1088.39 1951.82 1094.29V1150.29C1947.97 1151.13 1942.61 1152.1 1935.75 1153.18C1928.88 1154.38 1920.57 1154.99 1910.82 1154.99C1904.67 1154.99 1899.07 1154.45 1894.02 1153.36C1889.08 1152.28 1884.8 1150.53 1881.19 1148.12C1877.58 1145.59 1874.81 1142.34 1872.88 1138.37C1870.95 1134.39 1869.99 1129.52 1869.99 1123.73C1869.99 1118.19 1871.07 1113.5 1873.24 1109.64C1875.53 1105.79 1878.54 1102.72 1882.27 1100.43C1886.01 1098.14 1890.28 1096.52 1895.1 1095.55C1899.92 1094.47 1904.92 1093.93 1910.09 1093.93C1913.59 1093.93 1916.66 1094.11 1919.31 1094.47C1922.08 1094.71 1924.31 1095.07 1925.99 1095.55V1093.02C1925.99 1088.45 1924.61 1084.77 1921.84 1082C1919.07 1079.23 1914.25 1077.85 1907.38 1077.85C1902.81 1077.85 1898.29 1078.21 1893.84 1078.93C1889.38 1079.54 1885.53 1080.44 1882.27 1081.64L1878.84 1059.97C1880.41 1059.48 1882.33 1059 1884.62 1058.52C1887.03 1057.92 1889.62 1057.44 1892.39 1057.07C1895.16 1056.59 1898.05 1056.23 1901.06 1055.99C1904.19 1055.63 1907.32 1055.45 1910.46 1055.45Z" fill="black"/>
</svg>
