<svg width="143" height="44" viewBox="0 0 143 44" fill="none" xmlns="http://www.w3.org/2000/svg">
<path opacity="0.3" d="M1 22.0851C1.50546 21.6197 2.7921 20.9682 3.89493 22.0851C5.27346 23.4812 7.20341 26.7622 8.4441 26.6923C9.68478 26.6225 13.5447 11.9631 15.3368 13.8479C17.1289 15.7327 20.9888 35.6974 22.0916 34.6503C23.1944 33.6032 27.4679 4.91266 29.1221 5.61073C30.7764 6.3088 33.5335 44.6327 36.4284 42.8875C39.3233 41.1423 40.7019 4.70324 43.0454 5.61073C45.3889 6.51822 47.7324 35.4182 50.2138 34.7899C52.6951 34.1617 54.3494 12.9404 56.9686 13.7083C59.5878 14.4762 61.6556 28.0187 64.4127 26.6225C67.1698 25.2264 66.7562 20.3399 68.824 21.1776C70.8918 22.0153 73.2353 23.2718 73.9246 22.853C74.6139 22.4341 78.6116 16.8496 79.8523 17.5477C81.093 18.2457 84.6772 30.9506 85.9179 30.4619C87.1585 29.9733 91.432 8.75203 93.0862 9.65952C94.7405 10.567 97.7733 39.467 100.255 38.5595C102.736 37.652 105.08 1.42233 107.009 1.70156C108.939 1.98078 111.696 38.9783 113.764 38.7689C115.832 38.5595 118.589 9.24068 120.933 9.65952C123.276 10.0784 124.793 30.8109 127.825 30.5317C130.858 30.2525 131.685 17.6873 134.029 17.9665C136.372 18.2457 138.854 23.4114 140.508 22.9228C141.831 22.5319 142.254 22.2015 142.3 22.0851" stroke="#05ADF2" stroke-width="0.592039" stroke-linecap="round"/>
<path d="M37.7814 31.8C36.3358 29.2324 34.7715 26.6972 33.0885 24.1943C31.4055 21.6914 29.6147 19.3288 27.7159 17.1064V31.8H22.7318V9.37124H26.8421C27.5541 10.0833 28.3417 10.9571 29.2047 11.9928C30.0678 13.0285 30.9416 14.1397 31.8263 15.3264C32.7325 16.4915 33.6279 17.7106 34.5126 18.9836C35.3972 20.235 36.2279 21.4433 37.0046 22.6084V9.37124H42.0212V31.8H37.7814ZM61.4032 31.2175C60.5832 31.4548 59.526 31.6706 58.2314 31.8648C56.9368 32.0805 55.5775 32.1884 54.1534 32.1884C52.7078 32.1884 51.4995 31.9942 50.5286 31.6059C49.5792 31.2175 48.824 30.6781 48.263 29.9876C47.7021 29.2756 47.3029 28.4341 47.0655 27.4632C46.8282 26.4922 46.7095 25.4242 46.7095 24.259V14.7762H51.5319V23.6765C51.5319 25.23 51.7369 26.352 52.1468 27.0424C52.5568 27.7329 53.3227 28.0781 54.4447 28.0781C54.7899 28.0781 55.1567 28.0673 55.5451 28.0457C55.9335 28.0026 56.2787 27.9594 56.5808 27.9163V14.7762H61.4032V31.2175ZM76.8369 23.4176C76.8369 21.9288 76.5024 20.7421 75.8336 19.8574C75.1647 18.9512 74.1722 18.4981 72.856 18.4981C72.4245 18.4981 72.0253 18.5197 71.6585 18.5628C71.2917 18.5844 70.9896 18.6168 70.7523 18.6599V27.3661C71.0544 27.5603 71.4427 27.7221 71.9174 27.8515C72.4137 27.981 72.9099 28.0457 73.4062 28.0457C75.6933 28.0457 76.8369 26.503 76.8369 23.4176ZM81.7563 23.2881C81.7563 24.6043 81.5945 25.8018 81.2709 26.8806C80.9472 27.9594 80.4725 28.8872 79.8468 29.664C79.2211 30.4407 78.4443 31.0449 77.5165 31.4764C76.5887 31.9079 75.5207 32.1237 74.3124 32.1237C73.6435 32.1237 73.0178 32.059 72.4353 31.9295C71.8527 31.8 71.2917 31.6166 70.7523 31.3793V37.7875H65.9299V15.3587C66.3615 15.2293 66.8577 15.1106 67.4187 15.0027C67.9797 14.8733 68.5623 14.7654 69.1664 14.6791C69.7921 14.5928 70.4179 14.528 71.0436 14.4849C71.6909 14.4201 72.3058 14.3878 72.8884 14.3878C74.2908 14.3878 75.5423 14.6035 76.6427 15.0351C77.7431 15.445 78.6709 16.0384 79.4261 16.8151C80.1812 17.5703 80.753 18.4981 81.1414 19.5985C81.5513 20.6989 81.7563 21.9288 81.7563 23.2881ZM84.6535 23.4176C84.6535 21.9072 84.88 20.591 85.3331 19.4691C85.8078 18.3255 86.4228 17.3761 87.1779 16.621C87.9331 15.8658 88.7962 15.294 89.7671 14.9056C90.7596 14.5172 91.7737 14.3231 92.8094 14.3231C95.226 14.3231 97.1355 15.0674 98.538 16.5562C99.9405 18.0234 100.642 20.1919 100.642 23.0616C100.642 23.342 100.631 23.6549 100.609 24.0001C100.588 24.3238 100.566 24.6151 100.545 24.874H89.6053C89.7132 25.8665 90.1771 26.654 90.997 27.2366C91.8169 27.8192 92.9173 28.1105 94.2982 28.1105C95.1828 28.1105 96.0459 28.0349 96.8874 27.8839C97.7504 27.7113 98.4517 27.5063 98.9911 27.269L99.6384 31.1851C99.3795 31.3146 99.0342 31.444 98.6027 31.5735C98.1712 31.703 97.6857 31.8108 97.1463 31.8971C96.6285 32.005 96.0675 32.0913 95.4633 32.1561C94.8592 32.2208 94.255 32.2532 93.6509 32.2532C92.119 32.2532 90.7812 32.0266 89.6377 31.5735C88.5157 31.1204 87.5771 30.5055 86.8219 29.7287C86.0883 28.9304 85.5381 27.9918 85.1713 26.913C84.8261 25.8341 84.6535 24.669 84.6535 23.4176ZM95.9812 21.5728C95.9596 21.1628 95.8841 20.7636 95.7546 20.3753C95.6467 19.9869 95.4633 19.6417 95.2044 19.3396C94.9671 19.0375 94.6542 18.7894 94.2658 18.5952C93.899 18.401 93.4351 18.3039 92.8741 18.3039C92.3347 18.3039 91.8708 18.401 91.4825 18.5952C91.0941 18.7678 90.7704 19.0052 90.5115 19.3072C90.2526 19.6093 90.0476 19.9653 89.8966 20.3753C89.7671 20.7636 89.67 21.1628 89.6053 21.5728H95.9812ZM115.27 23.4176C115.27 21.9288 114.936 20.7421 114.267 19.8574C113.598 18.9512 112.605 18.4981 111.289 18.4981C110.858 18.4981 110.459 18.5197 110.092 18.5628C109.725 18.5844 109.423 18.6168 109.185 18.6599V27.3661C109.488 27.5603 109.876 27.7221 110.351 27.8515C110.847 27.981 111.343 28.0457 111.839 28.0457C114.127 28.0457 115.27 26.503 115.27 23.4176ZM120.19 23.2881C120.19 24.6043 120.028 25.8018 119.704 26.8806C119.38 27.9594 118.906 28.8872 118.28 29.664C117.654 30.4407 116.878 31.0449 115.95 31.4764C115.022 31.9079 113.954 32.1237 112.746 32.1237C112.077 32.1237 111.451 32.059 110.868 31.9295C110.286 31.8 109.725 31.6166 109.185 31.3793V37.7875H104.363V15.3587C104.795 15.2293 105.291 15.1106 105.852 15.0027C106.413 14.8733 106.995 14.7654 107.6 14.6791C108.225 14.5928 108.851 14.528 109.477 14.4849C110.124 14.4201 110.739 14.3878 111.322 14.3878C112.724 14.3878 113.975 14.6035 115.076 15.0351C116.176 15.445 117.104 16.0384 117.859 16.8151C118.614 17.5703 119.186 18.4981 119.575 19.5985C119.985 20.6989 120.19 21.9288 120.19 23.2881Z" fill="black"/>
</svg>
